<svg xmlns="http://www.w3.org/2000/svg" xmlns:xlink="http://www.w3.org/1999/xlink" width="500" zoomAndPan="magnify" viewBox="0 0 375 374.999991" height="500" preserveAspectRatio="xMidYMid meet" version="1.0"><defs><clipPath id="8bf48b74d7"><path d="M 62.539062 88.898438 L 312.289062 88.898438 L 312.289062 286.148438 L 62.539062 286.148438 Z M 62.539062 88.898438 " clip-rule="nonzero"/></clipPath><clipPath id="324768d9d1"><path d="M 224.371094 161.007812 C 228.21875 161.734375 231.996094 162.648438 235.699219 163.75 C 235.566406 165.15625 235.925781 166.503906 236.632812 167.617188 C 236.601562 167.5625 236.566406 167.511719 236.535156 167.457031 C 236.523438 167.4375 236.511719 167.417969 236.503906 167.398438 C 236.089844 166.683594 235.835938 165.914062 235.730469 165.144531 C 235.726562 165.117188 235.722656 165.085938 235.71875 165.058594 C 235.691406 164.816406 235.675781 164.570312 235.675781 164.328125 C 235.679688 162.210938 236.78125 160.148438 238.742188 159.003906 C 239.703125 158.453125 240.757812 158.1875 241.792969 158.1875 C 243.917969 158.1875 245.988281 159.292969 247.125 161.265625 C 247.503906 161.925781 247.75 162.625 247.863281 163.335938 C 247.917969 163.660156 247.945312 163.988281 247.945312 164.316406 C 247.945312 165.519531 247.59375 166.699219 246.929688 167.707031 C 251.082031 169.414062 255.117188 171.359375 259 173.53125 C 258.628906 174.234375 258.210938 174.910156 257.753906 175.5625 C 257.765625 175.550781 257.773438 175.539062 257.785156 175.523438 C 262.03125 169.445312 262.605469 161.195312 258.617188 154.441406 C 256.253906 150.441406 252.71875 147.589844 248.699219 146.074219 C 248.332031 145.953125 247.957031 145.839844 247.582031 145.742188 C 245.785156 145.207031 243.90625 144.933594 242.011719 144.933594 C 239.398438 144.933594 236.761719 145.460938 234.253906 146.558594 C 234.222656 146.570312 234.191406 146.585938 234.160156 146.597656 L 212.332031 133.988281 L 189.980469 146.90625 L 171.433594 136.191406 L 211.003906 113.324219 L 275.210938 150.414062 L 275.210938 173.75 L 210.976562 210.886719 L 146.753906 173.765625 C 146.753906 173.769531 146.75 173.769531 146.75 173.769531 L 101.496094 147.617188 C 101.742188 143.808594 100.832031 140.027344 98.917969 136.710938 C 95.746094 131.226562 90.25 127.707031 84.082031 127.050781 C 75.441406 126.136719 67.1875 131.105469 63.949219 139.183594 C 61.796875 144.550781 62.039062 150.824219 65.152344 156.21875 C 66.167969 157.976562 67.417969 159.519531 68.84375 160.828125 C 68.84375 160.828125 68.84375 160.832031 68.84375 160.832031 C 74.257812 165.8125 82.035156 167.316406 88.890625 164.726562 L 125.660156 185.988281 L 125.660156 188.457031 L 125.675781 188.488281 L 125.675781 236.824219 L 211.003906 286.148438 L 282.945312 244.582031 C 286.136719 246.441406 289.824219 247.355469 293.488281 247.21875 C 296.605469 247.105469 299.714844 246.242188 302.535156 244.613281 C 311.859375 239.242188 315.0625 227.296875 309.667969 217.964844 C 304.792969 209.496094 294.523438 206.078125 285.691406 209.542969 C 278.972656 212.171875 274.183594 218.332031 273.402344 225.640625 L 210.96875 261.71875 L 156.621094 230.328125 C 156.625 230.328125 156.632812 230.328125 156.636719 230.332031 L 146.765625 224.632812 L 146.765625 198.179688 L 200.441406 229.191406 L 211.011719 235.300781 L 284.617188 192.757812 L 296.300781 186.003906 L 296.300781 138.21875 C 277.917969 127.605469 259.546875 116.976562 241.164062 106.34375 C 241.160156 106.34375 241.160156 106.34375 241.15625 106.347656 C 231.097656 100.53125 221.03125 94.710938 210.96875 88.898438 L 150.289062 123.972656 L 146.109375 121.550781 C 146.265625 117.851562 145.386719 114.183594 143.507812 110.9375 C 138.113281 101.59375 126.199219 98.417969 116.886719 103.796875 C 107.558594 109.191406 104.359375 121.105469 109.75 130.445312 C 114.597656 138.847656 124.851562 142.386719 133.796875 138.839844 L 174.921875 162.597656 C 174.917969 162.601562 174.910156 162.601562 174.90625 162.601562 L 190.007812 171.316406 L 212.398438 158.398438 C 216.390625 160.699219 220.082031 163.234375 223.957031 165.664062 C 223.953125 165.605469 223.949219 165.546875 223.945312 165.488281 C 224.6875 175.253906 232.835938 182.941406 242.78125 182.941406 C 248.878906 182.941406 254.300781 180.050781 257.753906 175.5625 C 258.210938 174.910156 258.628906 174.234375 259 173.53125 C 255.117188 171.359375 251.082031 169.414062 246.929688 167.707031 C 246.921875 167.722656 246.910156 167.738281 246.898438 167.753906 C 246.683594 168.078125 246.429688 168.382812 246.152344 168.664062 C 246.148438 168.664062 246.148438 168.667969 246.148438 168.667969 C 245.925781 168.890625 245.683594 169.097656 245.421875 169.285156 C 245.421875 169.289062 245.421875 169.289062 245.417969 169.289062 C 245.121094 169.507812 244.804688 169.695312 244.472656 169.855469 C 243.960938 170.105469 243.414062 170.28125 242.847656 170.378906 C 242.835938 170.382812 242.828125 170.382812 242.816406 170.386719 C 242.644531 170.414062 242.476562 170.433594 242.304688 170.449219 C 242.300781 170.449219 242.300781 170.449219 242.296875 170.449219 C 242.136719 170.460938 241.976562 170.46875 241.8125 170.46875 C 241.710938 170.46875 241.609375 170.464844 241.511719 170.460938 C 240.605469 170.417969 239.757812 170.179688 239.007812 169.792969 C 238.03125 169.289062 237.214844 168.53125 236.636719 167.621094 C 236.636719 167.617188 236.632812 167.617188 236.632812 167.617188 C 235.925781 166.503906 235.566406 165.15625 235.699219 163.75 C 232 162.648438 228.21875 161.734375 224.371094 161.007812 Z M 87.480469 143.632812 C 87.851562 144.34375 88.066406 145.101562 88.140625 145.871094 C 88.359375 148.164062 87.28125 150.515625 85.097656 151.773438 C 83.832031 152.507812 82.414062 152.742188 81.074219 152.53125 C 80.480469 152.4375 79.898438 152.253906 79.355469 151.988281 C 78.390625 151.519531 77.539062 150.792969 76.90625 149.828125 C 76.84375 149.734375 76.78125 149.636719 76.726562 149.535156 C 75.027344 146.597656 76.039062 142.847656 78.96875 141.144531 C 79.933594 140.589844 80.988281 140.324219 82.027344 140.324219 C 82.71875 140.324219 83.40625 140.441406 84.054688 140.667969 C 85.308594 141.105469 86.425781 141.949219 87.191406 143.136719 C 87.296875 143.300781 87.390625 143.464844 87.480469 143.632812 Z M 132.75 121.121094 C 132.679688 122.078125 132.390625 123.007812 131.898438 123.835938 C 131.527344 124.464844 131.046875 125.019531 130.484375 125.476562 C 130.238281 125.671875 129.976562 125.855469 129.695312 126.019531 C 128.730469 126.574219 127.679688 126.835938 126.640625 126.835938 C 125.695312 126.835938 124.761719 126.617188 123.914062 126.199219 C 122.925781 125.710938 122.089844 124.964844 121.492188 124.046875 C 121.429688 123.953125 121.371094 123.859375 121.316406 123.761719 C 120.757812 122.792969 120.492188 121.734375 120.496094 120.691406 C 120.496094 119.617188 120.777344 118.5625 121.3125 117.632812 C 121.851562 116.695312 122.628906 115.914062 123.5625 115.371094 C 123.601562 115.347656 123.640625 115.324219 123.679688 115.304688 C 125.359375 114.386719 127.285156 114.335938 128.933594 115.003906 C 129.960938 115.421875 130.847656 116.109375 131.511719 116.976562 C 131.664062 117.183594 131.808594 117.398438 131.941406 117.625 C 132.4375 118.492188 132.703125 119.425781 132.753906 120.355469 C 132.761719 120.46875 132.761719 120.582031 132.761719 120.699219 C 132.761719 120.839844 132.757812 120.980469 132.75 121.121094 Z M 289.199219 232.703125 C 285.871094 230.308594 285.789062 225.355469 289.070312 222.84375 C 291.886719 220.710938 295.847656 221.363281 297.828125 224.222656 C 299.757812 227 299.0625 230.8125 296.320312 232.742188 C 294.183594 234.25 291.320312 234.230469 289.199219 232.703125 Z M 223.890625 164.035156 C 223.890625 164.199219 223.890625 164.359375 223.894531 164.523438 C 223.890625 164.359375 223.890625 164.199219 223.890625 164.035156 Z M 223.894531 164.523438 C 223.898438 164.683594 223.90625 164.84375 223.914062 165.007812 C 223.90625 164.84375 223.898438 164.683594 223.894531 164.523438 Z M 223.914062 165.007812 C 223.921875 165.167969 223.933594 165.328125 223.945312 165.488281 C 223.933594 165.328125 223.921875 165.167969 223.914062 165.007812 Z M 223.914062 165.007812 " clip-rule="evenodd"/></clipPath><linearGradient x1="190.626189" gradientTransform="matrix(0.0275401, 0, 0, 0.0275648, 62.539214, 88.898098)" y1="-138.811468" x2="6738.043605" gradientUnits="userSpaceOnUse" y2="8852.844682" id="3aad4843f6"><stop stop-opacity="1" stop-color="rgb(49.398804%, 85.099792%, 34.098816%)" offset="0"/><stop stop-opacity="1" stop-color="rgb(49.398804%, 85.099792%, 34.098816%)" offset="0.125"/><stop stop-opacity="1" stop-color="rgb(49.398804%, 85.099792%, 34.098816%)" offset="0.1875"/><stop stop-opacity="1" stop-color="rgb(49.398804%, 85.099792%, 34.098816%)" offset="0.21875"/><stop stop-opacity="1" stop-color="rgb(49.143982%, 85.014343%, 34.405518%)" offset="0.222656"/><stop stop-opacity="1" stop-color="rgb(48.890686%, 84.928894%, 34.713745%)" offset="0.226563"/><stop stop-opacity="1" stop-color="rgb(48.548889%, 84.814453%, 35.124207%)" offset="0.230469"/><stop stop-opacity="1" stop-color="rgb(48.208618%, 84.701538%, 35.536194%)" offset="0.234375"/><stop stop-opacity="1" stop-color="rgb(47.866821%, 84.587097%, 35.946655%)" offset="0.238281"/><stop stop-opacity="1" stop-color="rgb(47.52655%, 84.474182%, 36.358643%)" offset="0.242188"/><stop stop-opacity="1" stop-color="rgb(47.184753%, 84.359741%, 36.769104%)" offset="0.246094"/><stop stop-opacity="1" stop-color="rgb(46.844482%, 84.2453%, 37.181091%)" offset="0.25"/><stop stop-opacity="1" stop-color="rgb(46.502686%, 84.130859%, 37.591553%)" offset="0.253906"/><stop stop-opacity="1" stop-color="rgb(46.162415%, 84.017944%, 38.00354%)" offset="0.257812"/><stop stop-opacity="1" stop-color="rgb(45.822144%, 83.903503%, 38.414001%)" offset="0.261719"/><stop stop-opacity="1" stop-color="rgb(45.481873%, 83.790588%, 38.825989%)" offset="0.265625"/><stop stop-opacity="1" stop-color="rgb(45.140076%, 83.676147%, 39.23645%)" offset="0.269531"/><stop stop-opacity="1" stop-color="rgb(44.799805%, 83.563232%, 39.648438%)" offset="0.273438"/><stop stop-opacity="1" stop-color="rgb(44.458008%, 83.448792%, 40.058899%)" offset="0.277344"/><stop stop-opacity="1" stop-color="rgb(44.117737%, 83.335876%, 40.470886%)" offset="0.28125"/><stop stop-opacity="1" stop-color="rgb(43.77594%, 83.221436%, 40.881348%)" offset="0.285156"/><stop stop-opacity="1" stop-color="rgb(43.435669%, 83.106995%, 41.293335%)" offset="0.289062"/><stop stop-opacity="1" stop-color="rgb(43.093872%, 82.992554%, 41.703796%)" offset="0.292969"/><stop stop-opacity="1" stop-color="rgb(42.753601%, 82.879639%, 42.115784%)" offset="0.296875"/><stop stop-opacity="1" stop-color="rgb(42.411804%, 82.765198%, 42.527771%)" offset="0.300781"/><stop stop-opacity="1" stop-color="rgb(42.071533%, 82.652283%, 42.939758%)" offset="0.304688"/><stop stop-opacity="1" stop-color="rgb(41.731262%, 82.537842%, 43.35022%)" offset="0.308594"/><stop stop-opacity="1" stop-color="rgb(41.390991%, 82.424927%, 43.762207%)" offset="0.3125"/><stop stop-opacity="1" stop-color="rgb(41.049194%, 82.310486%, 44.172668%)" offset="0.316406"/><stop stop-opacity="1" stop-color="rgb(40.708923%, 82.196045%, 44.584656%)" offset="0.320312"/><stop stop-opacity="1" stop-color="rgb(40.367126%, 82.081604%, 44.995117%)" offset="0.324219"/><stop stop-opacity="1" stop-color="rgb(40.026855%, 81.968689%, 45.407104%)" offset="0.328125"/><stop stop-opacity="1" stop-color="rgb(39.685059%, 81.854248%, 45.817566%)" offset="0.332031"/><stop stop-opacity="1" stop-color="rgb(39.344788%, 81.741333%, 46.229553%)" offset="0.335938"/><stop stop-opacity="1" stop-color="rgb(39.002991%, 81.626892%, 46.640015%)" offset="0.339844"/><stop stop-opacity="1" stop-color="rgb(38.66272%, 81.513977%, 47.052002%)" offset="0.34375"/><stop stop-opacity="1" stop-color="rgb(38.320923%, 81.399536%, 47.462463%)" offset="0.347656"/><stop stop-opacity="1" stop-color="rgb(37.980652%, 81.285095%, 47.874451%)" offset="0.351562"/><stop stop-opacity="1" stop-color="rgb(37.640381%, 81.170654%, 48.284912%)" offset="0.355469"/><stop stop-opacity="1" stop-color="rgb(37.30011%, 81.057739%, 48.696899%)" offset="0.359375"/><stop stop-opacity="1" stop-color="rgb(36.958313%, 80.943298%, 49.107361%)" offset="0.363281"/><stop stop-opacity="1" stop-color="rgb(36.618042%, 80.830383%, 49.519348%)" offset="0.367188"/><stop stop-opacity="1" stop-color="rgb(36.276245%, 80.715942%, 49.92981%)" offset="0.371094"/><stop stop-opacity="1" stop-color="rgb(35.935974%, 80.603027%, 50.341797%)" offset="0.375"/><stop stop-opacity="1" stop-color="rgb(35.594177%, 80.488586%, 50.752258%)" offset="0.378906"/><stop stop-opacity="1" stop-color="rgb(35.253906%, 80.374146%, 51.164246%)" offset="0.382813"/><stop stop-opacity="1" stop-color="rgb(34.912109%, 80.259705%, 51.576233%)" offset="0.386719"/><stop stop-opacity="1" stop-color="rgb(34.571838%, 80.14679%, 51.98822%)" offset="0.390625"/><stop stop-opacity="1" stop-color="rgb(34.231567%, 80.032349%, 52.398682%)" offset="0.394531"/><stop stop-opacity="1" stop-color="rgb(33.891296%, 79.919434%, 52.810669%)" offset="0.398438"/><stop stop-opacity="1" stop-color="rgb(33.5495%, 79.804993%, 53.22113%)" offset="0.402344"/><stop stop-opacity="1" stop-color="rgb(33.209229%, 79.692078%, 53.633118%)" offset="0.40625"/><stop stop-opacity="1" stop-color="rgb(32.867432%, 79.577637%, 54.043579%)" offset="0.410156"/><stop stop-opacity="1" stop-color="rgb(32.527161%, 79.463196%, 54.455566%)" offset="0.414062"/><stop stop-opacity="1" stop-color="rgb(32.185364%, 79.348755%, 54.866028%)" offset="0.417969"/><stop stop-opacity="1" stop-color="rgb(31.845093%, 79.23584%, 55.278015%)" offset="0.421875"/><stop stop-opacity="1" stop-color="rgb(31.503296%, 79.121399%, 55.688477%)" offset="0.425781"/><stop stop-opacity="1" stop-color="rgb(31.163025%, 79.008484%, 56.100464%)" offset="0.429688"/><stop stop-opacity="1" stop-color="rgb(30.821228%, 78.894043%, 56.510925%)" offset="0.433594"/><stop stop-opacity="1" stop-color="rgb(30.480957%, 78.781128%, 56.922913%)" offset="0.4375"/><stop stop-opacity="1" stop-color="rgb(30.140686%, 78.666687%, 57.333374%)" offset="0.441406"/><stop stop-opacity="1" stop-color="rgb(29.800415%, 78.552246%, 57.745361%)" offset="0.445312"/><stop stop-opacity="1" stop-color="rgb(29.458618%, 78.437805%, 58.155823%)" offset="0.449219"/><stop stop-opacity="1" stop-color="rgb(29.118347%, 78.32489%, 58.56781%)" offset="0.453125"/><stop stop-opacity="1" stop-color="rgb(28.77655%, 78.210449%, 58.978271%)" offset="0.457031"/><stop stop-opacity="1" stop-color="rgb(28.436279%, 78.097534%, 59.390259%)" offset="0.460938"/><stop stop-opacity="1" stop-color="rgb(28.094482%, 77.983093%, 59.80072%)" offset="0.464844"/><stop stop-opacity="1" stop-color="rgb(27.754211%, 77.870178%, 60.212708%)" offset="0.46875"/><stop stop-opacity="1" stop-color="rgb(27.412415%, 77.755737%, 60.623169%)" offset="0.472656"/><stop stop-opacity="1" stop-color="rgb(27.072144%, 77.641296%, 61.035156%)" offset="0.476563"/><stop stop-opacity="1" stop-color="rgb(26.730347%, 77.526855%, 61.447144%)" offset="0.480469"/><stop stop-opacity="1" stop-color="rgb(26.390076%, 77.41394%, 61.859131%)" offset="0.484375"/><stop stop-opacity="1" stop-color="rgb(26.049805%, 77.2995%, 62.269592%)" offset="0.488281"/><stop stop-opacity="1" stop-color="rgb(25.709534%, 77.186584%, 62.68158%)" offset="0.492188"/><stop stop-opacity="1" stop-color="rgb(25.367737%, 77.072144%, 63.092041%)" offset="0.496094"/><stop stop-opacity="1" stop-color="rgb(25.027466%, 76.959229%, 63.504028%)" offset="0.5"/><stop stop-opacity="1" stop-color="rgb(24.685669%, 76.844788%, 63.91449%)" offset="0.503906"/><stop stop-opacity="1" stop-color="rgb(24.345398%, 76.730347%, 64.326477%)" offset="0.507812"/><stop stop-opacity="1" stop-color="rgb(24.003601%, 76.615906%, 64.736938%)" offset="0.511719"/><stop stop-opacity="1" stop-color="rgb(23.66333%, 76.502991%, 65.148926%)" offset="0.515625"/><stop stop-opacity="1" stop-color="rgb(23.321533%, 76.38855%, 65.559387%)" offset="0.519531"/><stop stop-opacity="1" stop-color="rgb(22.981262%, 76.275635%, 65.971375%)" offset="0.523437"/><stop stop-opacity="1" stop-color="rgb(22.639465%, 76.161194%, 66.381836%)" offset="0.527344"/><stop stop-opacity="1" stop-color="rgb(22.299194%, 76.048279%, 66.793823%)" offset="0.53125"/><stop stop-opacity="1" stop-color="rgb(21.958923%, 75.933838%, 67.204285%)" offset="0.535156"/><stop stop-opacity="1" stop-color="rgb(21.618652%, 75.819397%, 67.616272%)" offset="0.539062"/><stop stop-opacity="1" stop-color="rgb(21.276855%, 75.704956%, 68.026733%)" offset="0.542969"/><stop stop-opacity="1" stop-color="rgb(20.936584%, 75.592041%, 68.438721%)" offset="0.546875"/><stop stop-opacity="1" stop-color="rgb(20.594788%, 75.4776%, 68.849182%)" offset="0.550781"/><stop stop-opacity="1" stop-color="rgb(20.254517%, 75.364685%, 69.261169%)" offset="0.554688"/><stop stop-opacity="1" stop-color="rgb(19.91272%, 75.250244%, 69.671631%)" offset="0.558594"/><stop stop-opacity="1" stop-color="rgb(19.572449%, 75.137329%, 70.083618%)" offset="0.5625"/><stop stop-opacity="1" stop-color="rgb(19.230652%, 75.022888%, 70.495605%)" offset="0.566406"/><stop stop-opacity="1" stop-color="rgb(18.890381%, 74.908447%, 70.907593%)" offset="0.570312"/><stop stop-opacity="1" stop-color="rgb(18.55011%, 74.794006%, 71.318054%)" offset="0.574219"/><stop stop-opacity="1" stop-color="rgb(18.209839%, 74.681091%, 71.730042%)" offset="0.578125"/><stop stop-opacity="1" stop-color="rgb(17.868042%, 74.56665%, 72.140503%)" offset="0.582031"/><stop stop-opacity="1" stop-color="rgb(17.527771%, 74.453735%, 72.55249%)" offset="0.585938"/><stop stop-opacity="1" stop-color="rgb(17.185974%, 74.339294%, 72.962952%)" offset="0.589844"/><stop stop-opacity="1" stop-color="rgb(16.845703%, 74.226379%, 73.374939%)" offset="0.59375"/><stop stop-opacity="1" stop-color="rgb(16.503906%, 74.111938%, 73.7854%)" offset="0.597656"/><stop stop-opacity="1" stop-color="rgb(16.163635%, 73.999023%, 74.197388%)" offset="0.601562"/><stop stop-opacity="1" stop-color="rgb(15.821838%, 73.884583%, 74.607849%)" offset="0.605469"/><stop stop-opacity="1" stop-color="rgb(15.481567%, 73.770142%, 75.019836%)" offset="0.609375"/><stop stop-opacity="1" stop-color="rgb(15.139771%, 73.655701%, 75.430298%)" offset="0.613281"/><stop stop-opacity="1" stop-color="rgb(14.7995%, 73.542786%, 75.842285%)" offset="0.617188"/><stop stop-opacity="1" stop-color="rgb(14.459229%, 73.428345%, 76.252747%)" offset="0.621094"/><stop stop-opacity="1" stop-color="rgb(14.118958%, 73.31543%, 76.664734%)" offset="0.625"/><stop stop-opacity="1" stop-color="rgb(13.777161%, 73.200989%, 77.075195%)" offset="0.628906"/><stop stop-opacity="1" stop-color="rgb(13.43689%, 73.088074%, 77.487183%)" offset="0.632812"/><stop stop-opacity="1" stop-color="rgb(13.095093%, 72.973633%, 77.897644%)" offset="0.636719"/><stop stop-opacity="1" stop-color="rgb(12.754822%, 72.859192%, 78.309631%)" offset="0.640625"/><stop stop-opacity="1" stop-color="rgb(12.413025%, 72.744751%, 78.720093%)" offset="0.644531"/><stop stop-opacity="1" stop-color="rgb(12.072754%, 72.631836%, 79.13208%)" offset="0.648438"/><stop stop-opacity="1" stop-color="rgb(11.730957%, 72.517395%, 79.542542%)" offset="0.652344"/><stop stop-opacity="1" stop-color="rgb(11.390686%, 72.40448%, 79.954529%)" offset="0.65625"/><stop stop-opacity="1" stop-color="rgb(11.048889%, 72.290039%, 80.366516%)" offset="0.660156"/><stop stop-opacity="1" stop-color="rgb(10.708618%, 72.177124%, 80.778503%)" offset="0.664062"/><stop stop-opacity="1" stop-color="rgb(10.368347%, 72.062683%, 81.188965%)" offset="0.667969"/><stop stop-opacity="1" stop-color="rgb(10.028076%, 71.948242%, 81.600952%)" offset="0.671875"/><stop stop-opacity="1" stop-color="rgb(9.686279%, 71.833801%, 82.011414%)" offset="0.675781"/><stop stop-opacity="1" stop-color="rgb(9.346008%, 71.720886%, 82.423401%)" offset="0.679688"/><stop stop-opacity="1" stop-color="rgb(9.004211%, 71.606445%, 82.833862%)" offset="0.683594"/><stop stop-opacity="1" stop-color="rgb(8.66394%, 71.49353%, 83.24585%)" offset="0.6875"/><stop stop-opacity="1" stop-color="rgb(8.322144%, 71.379089%, 83.656311%)" offset="0.691406"/><stop stop-opacity="1" stop-color="rgb(7.981873%, 71.266174%, 84.068298%)" offset="0.695312"/><stop stop-opacity="1" stop-color="rgb(7.640076%, 71.151733%, 84.47876%)" offset="0.699219"/><stop stop-opacity="1" stop-color="rgb(7.299805%, 71.037292%, 84.890747%)" offset="0.703125"/><stop stop-opacity="1" stop-color="rgb(6.958008%, 70.922852%, 85.301208%)" offset="0.707031"/><stop stop-opacity="1" stop-color="rgb(6.617737%, 70.809937%, 85.713196%)" offset="0.710938"/><stop stop-opacity="1" stop-color="rgb(6.277466%, 70.695496%, 86.123657%)" offset="0.714844"/><stop stop-opacity="1" stop-color="rgb(5.937195%, 70.582581%, 86.535645%)" offset="0.71875"/><stop stop-opacity="1" stop-color="rgb(5.595398%, 70.46814%, 86.946106%)" offset="0.722656"/><stop stop-opacity="1" stop-color="rgb(5.255127%, 70.355225%, 87.358093%)" offset="0.726563"/><stop stop-opacity="1" stop-color="rgb(4.91333%, 70.240784%, 87.768555%)" offset="0.730469"/><stop stop-opacity="1" stop-color="rgb(4.573059%, 70.126343%, 88.180542%)" offset="0.734375"/><stop stop-opacity="1" stop-color="rgb(4.231262%, 70.011902%, 88.591003%)" offset="0.738281"/><stop stop-opacity="1" stop-color="rgb(3.890991%, 69.898987%, 89.002991%)" offset="0.742188"/><stop stop-opacity="1" stop-color="rgb(3.549194%, 69.784546%, 89.414978%)" offset="0.746094"/><stop stop-opacity="1" stop-color="rgb(3.208923%, 69.671631%, 89.826965%)" offset="0.75"/><stop stop-opacity="1" stop-color="rgb(2.867126%, 69.55719%, 90.237427%)" offset="0.753906"/><stop stop-opacity="1" stop-color="rgb(2.526855%, 69.444275%, 90.649414%)" offset="0.757812"/><stop stop-opacity="1" stop-color="rgb(2.186584%, 69.329834%, 91.059875%)" offset="0.761719"/><stop stop-opacity="1" stop-color="rgb(1.846313%, 69.215393%, 91.471863%)" offset="0.765625"/><stop stop-opacity="1" stop-color="rgb(1.504517%, 69.100952%, 91.882324%)" offset="0.769531"/><stop stop-opacity="1" stop-color="rgb(1.164246%, 68.988037%, 92.294312%)" offset="0.773437"/><stop stop-opacity="1" stop-color="rgb(0.822449%, 68.873596%, 92.704773%)" offset="0.777344"/><stop stop-opacity="1" stop-color="rgb(0.482178%, 68.760681%, 93.11676%)" offset="0.78125"/><stop stop-opacity="1" stop-color="rgb(0.241089%, 68.67981%, 93.408203%)" offset="0.785156"/><stop stop-opacity="1" stop-color="rgb(0%, 68.598938%, 93.699646%)" offset="0.789062"/><stop stop-opacity="1" stop-color="rgb(0%, 68.598938%, 93.699646%)" offset="0.796875"/><stop stop-opacity="1" stop-color="rgb(0%, 68.598938%, 93.699646%)" offset="0.8125"/><stop stop-opacity="1" stop-color="rgb(0%, 68.598938%, 93.699646%)" offset="0.875"/><stop stop-opacity="1" stop-color="rgb(0%, 68.598938%, 93.699646%)" offset="1"/></linearGradient></defs><g clip-path="url(#8bf48b74d7)"><g clip-path="url(#324768d9d1)"><path fill="url(#3aad4843f6)" d="M 62.539062 88.898438 L 62.539062 286.148438 L 312.289062 286.148438 L 312.289062 88.898438 Z M 62.539062 88.898438 " fill-rule="nonzero"/></g></g></svg>